<?xml version="1.0" encoding="iso-8859-1"?>
<!-- Generator: Adobe Illustrator 19.0.0, SVG Export Plug-In . SVG Version: 6.00 Build 0)  -->
<svg version="1.1" id="Layer_1" xmlns="http://www.w3.org/2000/svg" xmlns:xlink="http://www.w3.org/1999/xlink" x="0px" y="0px"
	 viewBox="0 0 511.999 511.999" style="enable-background:new 0 0 511.999 511.999;" xml:space="preserve">
<g>
	<g>
		<path d="M366.976,86.384c-32.334,0-58.639,26.305-58.639,58.639c0,32.334,26.306,58.64,58.639,58.64s58.64-26.306,58.64-58.64
			C425.616,112.689,399.31,86.384,366.976,86.384z M366.976,173.246c-15.562,0-28.222-12.661-28.222-28.223
			s12.661-28.222,28.222-28.222s28.223,12.66,28.223,28.222S382.538,173.246,366.976,173.246z"/>
	</g>
</g>
<g>
	<g>
		<path d="M510.832,126.578C501.743,55.289,440.695,0,366.977,0H145.023C65.057,0,0,65.057,0,145.023v366.976h252.371V290.046
			h114.606c73.719,0,134.766-55.289,143.855-126.578c0.771-6.041,1.167-12.198,1.167-18.445
			C511.999,138.776,511.603,132.619,510.832,126.578z M221.954,161.946h-22.876v30.417h22.876v67.265v15.209v88.588h-22.876v30.417
			h22.876v87.739H30.417v-87.738h22.876v-30.417H30.417V192.364h22.876v-30.417H30.417v-16.924
			c0-63.194,51.412-114.606,114.606-114.606h133.194c-34.207,26.552-56.263,68.049-56.263,114.605V161.946z M252.371,259.629
			v-25.847c7.498,9.659,16.187,18.349,25.847,25.847H252.371z M478.643,170.872c-11.753,50.787-57.359,88.756-111.667,88.756
			c-63.194,0-114.606-51.412-114.606-114.606S303.782,30.417,366.976,30.417c54.307,0,99.913,37.969,111.667,88.754
			c1.923,8.31,2.94,16.964,2.94,25.851S480.566,162.563,478.643,170.872z"/>
	</g>
</g>
<g>
	<g>
		<rect x="76.499" y="363.424" width="38.084" height="30.417"/>
	</g>
</g>
<g>
	<g>
		<rect x="137.79" y="363.424" width="38.084" height="30.417"/>
	</g>
</g>
<g>
	<g>
		<rect x="76.499" y="161.951" width="38.084" height="30.417"/>
	</g>
</g>
<g>
	<g>
		<rect x="137.79" y="161.951" width="38.084" height="30.417"/>
	</g>
</g>
<g>
</g>
<g>
</g>
<g>
</g>
<g>
</g>
<g>
</g>
<g>
</g>
<g>
</g>
<g>
</g>
<g>
</g>
<g>
</g>
<g>
</g>
<g>
</g>
<g>
</g>
<g>
</g>
<g>
</g>
</svg>
